# xmcd
# 
# Track frame offsets:
#     150
#     13494
#     26821
#     40149
#     53476
#     66072
#     78667
#     91263
#     103858
#     117758
#     131859
#     145961
#     160062
#     174823
#     189585
#     204347
#     219108
#     230663
#     242218
#     253773
# 
# Disc length: 3536
# 
# Revision: 0
# Processed by: cddbd v1.5.2PL0 Copyright (c) Steve Scherf et al.
# Submitted via: fre:ac v1.0.17
# 
DISCID=170dce14
DTITLE=dbloops.de - Blues Play-Along Vol 6 - Disc 2
DYEAR=0
DGENRE=Blues
TTITLE0=Track 21 - Jazzy Blues mit Larry Carlton Feel - Complete
TTITLE1=Track 22 - Jazzy Blues mit Larry Carlton Feel - ohne Solo Gitarre
TTITLE2=Track 23 - Jazzy Blues mit Larry Carlton Feel - ohne Gitarren
TTITLE3=Track 24 - Jazzy Blues mit Larry Carlton Feel - ohne Bass
TTITLE4=Track 25 - Blues im Key to the highway Stil á la Derek and the Dominos - Complete
TTITLE5=Track 26 - Blues im Key to the highway Stil á la Derek and the Dominos - ohne Solo Gitarre
TTITLE6=Track 27 - Blues im Key to the highway Stil á la Derek and the Dominos - ohne Gitarren 
TTITLE7=Track 28 - Blues im Key to the highway Stil á la Derek and the Dominos - ohne Bass
TTITLE8=Track 29 - Schwerer Blues im Billy Gibbons Stil - Complete
TTITLE9=Track 30 - Schwerer Blues im Billy Gibbons Stil - ohne Solo Gitarre
TTITLE10=Track 31 - Schwerer Blues im Billy Gibbons Stil - ohne Gitarren
TTITLE11=Track 32 - Schwerer Blues im Billy Gibbons Stil - ohne Bass
TTITLE12=Track 33 - Schwebender Bluesrock mit Peter Green Anleihen - Complete
TTITLE13=Track 34 - Schwebender Bluesrock mit Peter Green Anleihen - ohne Solo Gitarre
TTITLE14=Track 35 - Schwebender Bluesrock mit Peter Green Anleihen - ohne Gitarren
TTITLE15=Track 36 - Schwebender Bluesrock mit Peter Green Anleihen - ohne Bass
TTITLE16=Track 37 - Unplugged Blues im Clapton Stil - Complete
TTITLE17=Track 38 - Unplugged Blues im Clapton Stil - ohne Solo Gitarre
TTITLE18=Track 39 - Unplugged Blues im Clapton Stil - ohne Gitarren
TTITLE19=Track 40 - Unplugged Blues im Clapton Stil - ohne Bass
EXTD=
EXTT0=
EXTT1=
EXTT2=
EXTT3=
EXTT4=
EXTT5=
EXTT6=
EXTT7=
EXTT8=
EXTT9=
EXTT10=
EXTT11=
EXTT12=
EXTT13=
EXTT14=
EXTT15=
EXTT16=
EXTT17=
EXTT18=
EXTT19=
PLAYORDER=
